<?xml version="1.0" standalone="no"?>
<!DOCTYPE svg PUBLIC "-//W3C//DTD SVG 20010904//EN"
 "http://www.w3.org/TR/2001/REC-SVG-20010904/DTD/svg10.dtd">
<svg version="1.0" xmlns="http://www.w3.org/2000/svg"
 width="300.000000pt" height="300.000000pt" viewBox="0 0 300.000000 300.000000"
 preserveAspectRatio="xMidYMid meet">
<metadata>
Created by potrace 1.10, written by Peter Selinger 2001-2011
</metadata>
<g transform="translate(0.000000,300.000000) scale(0.100000,-0.100000)"
fill="#000000" stroke="none">
<path d="M1280 2970 c-160 -34 -309 -103 -448 -207 l-82 -62 -41 44 c-77 83
-88 87 -266 86 l-158 -1 -20 33 c-11 17 -37 40 -58 51 -50 24 -98 15 -144 -28
-30 -27 -36 -41 -40 -82 -7 -84 47 -145 131 -146 52 -1 90 20 114 63 l17 29
145 0 145 0 58 -56 58 -56 -41 -44 c-136 -147 -246 -390 -272 -600 l-12 -94
-41 0 c-34 0 -43 5 -57 30 -33 58 -132 76 -194 35 -49 -32 -68 -119 -39 -176
46 -88 197 -90 237 -4 9 21 18 25 55 25 l43 0 0 -59 c0 -126 54 -324 128 -466
20 -38 64 -107 98 -152 l61 -81 -99 -99 c-55 -54 -106 -110 -114 -125 -8 -17
-14 -56 -14 -103 0 -57 -3 -75 -14 -75 -8 0 -28 -16 -45 -35 -61 -70 -33 -177
55 -211 37 -14 51 -15 84 -5 107 32 132 177 40 238 -33 23 -33 24 -31 91 l2
67 100 100 c80 81 101 97 109 85 5 -8 10 -94 10 -191 0 -185 3 -199 47 -199
39 0 45 29 41 223 -3 169 -5 184 -25 213 l-22 31 80 79 80 79 27 -31 c30 -34
62 -54 87 -54 10 0 52 34 94 75 l77 75 52 -22 52 -22 0 -93 c0 -106 11 -138
53 -153 39 -13 247 -13 283 0 46 18 53 37 54 146 l0 100 52 22 52 22 71 -69
c107 -105 113 -105 243 23 83 81 112 120 112 152 0 9 -34 51 -75 93 l-75 77
22 52 22 52 99 0 c54 0 107 4 117 10 29 16 40 66 40 185 0 181 -12 195 -163
195 l-93 0 -22 52 -22 52 75 77 c76 78 84 94 64 132 -15 29 -178 190 -207 206
-35 18 -61 5 -137 -70 l-71 -69 -52 22 -52 22 0 101 c0 147 2 145 -195 145
l-154 0 -20 -26 c-18 -23 -21 -41 -21 -124 l0 -97 -52 -22 -52 -22 -70 70
c-39 38 -81 72 -93 76 -26 7 -60 -9 -86 -42 -10 -12 -22 -23 -26 -23 -4 0 -36
29 -73 64 l-66 65 57 44 c119 93 252 157 409 198 100 27 300 36 413 19 385
-56 711 -319 853 -687 50 -128 67 -226 75 -428 l8 -180 136 -255 c74 -140 133
-258 130 -262 -2 -5 -52 -8 -109 -8 -103 0 -106 -1 -135 -29 -27 -27 -29 -35
-29 -105 0 -65 3 -77 20 -86 44 -24 74 19 68 96 l-3 39 113 5 c111 5 114 6
139 34 41 48 30 83 -115 356 l-129 245 -7 163 c-8 184 -23 280 -65 405 -146
431 -559 761 -981 783 -85 5 -92 4 -71 -9 l23 -14 -23 -6 c-31 -9 -93 -9 -114
0 -15 5 -14 8 6 19 22 12 17 13 -46 13 -38 0 -108 -9 -155 -19z m-1087 -151
c30 -42 -16 -94 -62 -70 -23 13 -29 59 -9 79 19 19 55 14 71 -9z m77 -43 c-20
-25 -30 -19 -30 21 l0 37 22 -21 c18 -18 19 -24 8 -37z m501 -102 c27 5 28 4
19 -14 -7 -13 -7 -27 0 -45 9 -24 8 -26 -7 -20 -23 10 -43 10 -66 0 -16 -7
-16 -5 -5 20 9 20 9 31 0 46 -17 27 -15 31 9 18 12 -6 35 -8 50 -5z m859 -133
c0 -79 3 -103 18 -120 21 -27 122 -72 175 -78 37 -5 42 -2 110 67 l70 72 76
-76 76 -76 -73 -73 c-82 -82 -85 -95 -47 -175 14 -29 25 -57 25 -62 0 -6 11
-22 25 -35 22 -23 31 -25 125 -25 l100 0 0 -105 0 -105 -99 0 c-80 0 -103 -3
-119 -17 -23 -20 -82 -156 -82 -190 0 -14 26 -47 72 -93 l72 -71 -76 -76 -76
-76 -73 72 c-82 83 -82 83 -198 38 -93 -35 -101 -49 -101 -168 l0 -99 -105 0
-105 0 0 99 c0 109 -14 142 -67 156 -15 3 -45 15 -67 26 -67 32 -83 27 -163
-53 l-73 -73 -75 76 -76 75 71 70 c78 79 85 100 51 170 -11 22 -23 52 -26 67
-14 53 -47 67 -156 67 l-99 0 0 105 0 105 99 0 c109 0 142 14 156 67 3 15 15
45 26 67 33 68 27 86 -53 166 l-72 71 77 76 76 77 72 -73 c68 -68 75 -72 108
-68 51 6 153 52 173 78 15 17 18 41 18 120 l0 99 105 0 105 0 0 -99z m-777
-131 c-41 -37 -56 -65 -48 -93 4 -12 38 -54 76 -93 l70 -70 -22 -52 -22 -52
-97 0 c-83 0 -101 -3 -124 -21 -22 -18 -26 -28 -26 -75 l0 -54 -105 0 -104 0
4 28 c43 272 108 428 252 598 l43 52 68 -70 67 -70 -32 -28z m105 67 c23 1 23
0 -9 -33 -18 -18 -33 -33 -34 -31 -1 1 -5 19 -8 40 -5 34 -4 38 11 31 9 -4 28
-7 40 -7z m-761 -604 c14 -20 13 -24 -12 -48 -24 -25 -28 -26 -48 -12 -44 29
-28 91 21 85 14 -2 31 -13 39 -25z m83 -19 c0 -7 -9 -18 -19 -23 -17 -9 -19
-6 -23 28 -3 38 -3 38 19 24 13 -9 23 -21 23 -29z m157 24 l23 -22 -22 -23
c-27 -29 -35 -29 -58 0 -18 21 -18 23 2 45 26 27 26 27 55 0z m263 -23 l0 -46
-25 18 c-13 10 -25 22 -25 26 0 7 39 46 48 47 1 0 2 -20 2 -45z m-40 -97 c0
-29 4 -58 8 -64 16 -25 55 -34 144 -34 l94 0 22 -52 22 -52 -69 -71 c-38 -38
-72 -80 -76 -92 -8 -28 9 -61 47 -92 l30 -24 -78 -78 c-43 -44 -82 -79 -86
-79 -13 0 -108 141 -145 215 -69 136 -102 251 -118 408 l-7 67 106 0 106 0 0
-52z m282 -485 l37 -38 -44 -1 c-41 -1 -43 0 -34 18 6 10 7 28 4 38 -9 28 -4
25 37 -17z m-201 -179 c27 5 29 4 19 -15 -8 -14 -8 -29 -1 -50 11 -32 9 -34
-18 -17 -15 9 -26 9 -46 0 -25 -12 -27 -11 -20 5 11 23 10 53 0 77 -7 16 -6
17 15 6 12 -7 36 -9 51 -6z m-249 -456 c15 -22 14 -23 -18 -23 -39 0 -40 2
-17 27 20 22 18 23 35 -4z m12 -74 c49 -48 -15 -113 -66 -67 -22 20 -23 32 -2
61 18 26 46 28 68 6z"/>
<path d="M1465 2333 c-187 -25 -365 -184 -409 -366 -9 -37 9 -67 39 -67 28 0
34 7 58 79 63 184 262 302 447 262 245 -53 378 -298 289 -535 -30 -82 -131
-184 -214 -217 -76 -29 -205 -33 -280 -6 -102 35 -203 137 -240 240 -23 66
-32 77 -61 77 -39 0 -47 -31 -25 -96 44 -125 132 -224 246 -279 411 -198 840
231 640 640 -66 137 -207 242 -355 265 -66 10 -80 10 -135 3z"/>
<path d="M2632 738 c-7 -7 -12 -28 -12 -47 0 -88 -43 -160 -115 -192 -34 -16
-67 -19 -233 -19 -204 0 -239 -7 -262 -49 -6 -11 -10 -89 -10 -180 l0 -161
-585 0 -585 0 0 179 c0 150 -3 182 -16 195 -18 19 -45 21 -62 4 -16 -16 -17
-377 -1 -411 11 -25 34 -40 77 -52 23 -7 23 -7 7 19 -10 14 -21 26 -25 26 -4
0 -11 7 -14 16 -6 15 -4 15 18 0 23 -14 86 -16 602 -16 536 0 579 1 597 17 25
22 14 -1 -16 -34 -25 -28 -21 -32 20 -21 59 16 68 43 69 218 l0 155 205 5
c188 5 208 7 251 28 59 29 131 107 145 158 20 68 26 131 14 153 -13 23 -50 28
-69 9z"/>
</g>
</svg>
